<mxfile host="Electron" agent="Mozilla/5.0 (Windows NT 10.0; Win64; x64) AppleWebKit/537.36 (KHTML, like Gecko) draw.io/27.0.5 Chrome/134.0.6998.205 Electron/35.3.0 Safari/537.36" version="27.0.5" pages="5">
  <diagram id="FANDVcVOmpmnvKxlsAkZ" name="Controladores1">
    <mxGraphModel dx="4074" dy="3503" grid="1" gridSize="10" guides="1" tooltips="1" connect="1" arrows="1" fold="1" page="1" pageScale="1" pageWidth="850" pageHeight="1100" background="none" math="0" shadow="0">
      <root>
        <mxCell id="0" />
        <mxCell id="1" parent="0" />
        <mxCell id="node6" value="&lt;p style=&quot;margin:0px;margin-top:4px;text-align:center;&quot;&gt;&lt;b&gt;AlumnoControladorSaes&lt;/b&gt;&lt;/p&gt;&lt;hr size=&quot;1&quot;&gt;&lt;p style=&quot;margin:0 0 0 4px;line-height:1.6;&quot;&gt;- alumnoServicio: AlumnoServicio&lt;/p&gt;&lt;hr size=&quot;1&quot;&gt;&lt;p style=&quot;margin:0 0 0 4px;line-height:1.6;&quot;&gt;+ AlumnoControladorSaes(AlumnoServicio):&lt;/p&gt;&lt;p style=&quot;margin:0 0 0 4px;line-height:1.6;&quot;&gt;+ obtenerAlumnosInscritos(String): ResponseEntity&amp;lt;List&amp;lt;ListaAlumnosInscritosProjectionSaes&amp;gt;&amp;gt;&lt;br&gt;+ nuevoVideoAlumno(NuevoVideoAlumnoDTOSaes): ResponseEntity&amp;lt;Object&amp;gt;&lt;br&gt;+ obtenerAlumnos(): ResponseEntity&amp;lt;List&amp;lt;AlumnoDTOSaes&amp;gt;&amp;gt;&lt;/p&gt;" style="verticalAlign=top;align=left;overflow=fill;fontSize=14;fontFamily=Helvetica;html=1;rounded=0;shadow=0;comic=0;labelBackgroundColor=none;strokeWidth=1;" parent="1" vertex="1">
          <mxGeometry x="12" y="-1093" width="641" height="170" as="geometry" />
        </mxCell>
        <mxCell id="node25" value="&lt;p style=&quot;margin:0px;margin-top:4px;text-align:center;&quot;&gt;&lt;b&gt;CargoControladorSaes&lt;/b&gt;&lt;/p&gt;&lt;hr size=&quot;1&quot;&gt;&lt;p style=&quot;margin:0 0 0 4px;line-height:1.6;&quot;&gt;- docenteServicio: DocenteServicio&lt;/p&gt;&lt;hr size=&quot;1&quot;&gt;&lt;p style=&quot;margin:0 0 0 4px;line-height:1.6;&quot;&gt;+ CargoControladorSaes(DocenteServicio):&lt;/p&gt;&lt;p style=&quot;margin:0 0 0 4px;line-height:1.6;&quot;&gt;+ obtenerCargosDocente(): List&amp;lt;?&amp;gt;&lt;/p&gt;" style="verticalAlign=top;align=left;overflow=fill;fontSize=14;fontFamily=Helvetica;html=1;rounded=0;shadow=0;comic=0;labelBackgroundColor=none;strokeWidth=1;" parent="1" vertex="1">
          <mxGeometry x="12" y="-900" width="278" height="120" as="geometry" />
        </mxCell>
        <mxCell id="node10" value="&lt;p style=&quot;margin:0px;margin-top:4px;text-align:center;&quot;&gt;&lt;b&gt;CargoPSControladorSaes&lt;/b&gt;&lt;/p&gt;&lt;hr size=&quot;1&quot;&gt;&lt;p style=&quot;margin:0 0 0 4px;line-height:1.6;&quot;&gt;-&amp;nbsp;cargoPSServicio:&amp;nbsp;PersonalSeguridadServicio&lt;br&gt;&lt;/p&gt;&lt;hr size=&quot;1&quot;&gt;&lt;p style=&quot;margin:0 0 0 4px;line-height:1.6;&quot;&gt;&lt;span style=&quot;background-color: transparent; color: light-dark(rgb(0, 0, 0), rgb(255, 255, 255));&quot;&gt;+ CargoPSControladorSaes(PersonalSeguridadServicio):&lt;/span&gt;&lt;/p&gt;&lt;p style=&quot;margin:0 0 0 4px;line-height:1.6;&quot;&gt;+ obtenerCargosPS(): List&amp;lt;?&amp;gt;&lt;/p&gt;" style="verticalAlign=top;align=left;overflow=fill;fontSize=14;fontFamily=Helvetica;html=1;rounded=0;shadow=0;comic=0;labelBackgroundColor=none;strokeWidth=1;" parent="1" vertex="1">
          <mxGeometry x="470" y="-748" width="369" height="120" as="geometry" />
        </mxCell>
        <mxCell id="node12" value="&lt;p style=&quot;margin:0px;margin-top:4px;text-align:center;&quot;&gt;&lt;b&gt;ETSControladorSaes&lt;/b&gt;&lt;/p&gt;&lt;hr size=&quot;1&quot;&gt;&lt;p style=&quot;margin:0 0 0 4px;line-height:1.6;&quot;&gt;- etsService: ETSServicio&lt;/p&gt;&lt;hr size=&quot;1&quot;&gt;&lt;p style=&quot;margin:0 0 0 4px;line-height:1.6;&quot;&gt;+ ETSControladorSaes(ETSServicio):&lt;/p&gt;&lt;p style=&quot;margin:0 0 0 4px;line-height:1.6;&quot;&gt;+ obtenerETS: ResponseEntity&amp;lt;List&amp;lt;ETSDTOSaes&amp;gt;&amp;gt;&lt;/p&gt;&lt;p style=&quot;margin:0 0 0 4px;line-height:1.6;&quot;&gt;+ registrarETS(NuevoETSDTOSaes): ResponseEntity&amp;lt;Object&amp;gt;&lt;/p&gt;" style="verticalAlign=top;align=left;overflow=fill;fontSize=14;fontFamily=Helvetica;html=1;rounded=0;shadow=0;comic=0;labelBackgroundColor=none;strokeWidth=1;" parent="1" vertex="1">
          <mxGeometry x="360" y="-912" width="400" height="150" as="geometry" />
        </mxCell>
        <mxCell id="node2" value="&lt;p style=&quot;margin:0px;margin-top:4px;text-align:center;&quot;&gt;&lt;b&gt;EscuelaProgramaControladorSaes&lt;/b&gt;&lt;/p&gt;&lt;hr size=&quot;1&quot;&gt;&lt;p style=&quot;margin:0 0 0 4px;line-height:1.6;&quot;&gt;-&amp;nbsp;programaAcademicoServicio: ProgramaAcademicoServicio&lt;/p&gt;&lt;hr size=&quot;1&quot;&gt;&lt;p style=&quot;margin:0 0 0 4px;line-height:1.6;&quot;&gt;&lt;span style=&quot;background-color: transparent; color: light-dark(rgb(0, 0, 0), rgb(255, 255, 255));&quot;&gt;+ EscuelaProgramaControladorSaes(ProgramaAcademicoServicio):&lt;/span&gt;&lt;/p&gt;&lt;p style=&quot;margin:0 0 0 4px;line-height:1.6;&quot;&gt;+ obtenerProgramasAcademicos(Map&amp;lt;String, Integer&amp;gt;): List&amp;lt;?&amp;gt;&lt;br&gt;+ obtenerTodoProgramaAcademico(): List&amp;lt;?&amp;gt;&lt;/p&gt;" style="verticalAlign=top;align=left;overflow=fill;fontSize=14;fontFamily=Helvetica;html=1;rounded=0;shadow=0;comic=0;labelBackgroundColor=none;strokeWidth=1;" parent="1" vertex="1">
          <mxGeometry x="7" y="-748" width="449" height="150" as="geometry" />
        </mxCell>
        <mxCell id="node23" value="&lt;p style=&quot;margin:0px;margin-top:4px;text-align:center;&quot;&gt;&lt;b&gt;InscripcionesControladorSaes&lt;/b&gt;&lt;/p&gt;&lt;hr size=&quot;1&quot;&gt;&lt;p style=&quot;margin:0 0 0 4px;line-height:1.6;&quot;&gt;-&amp;nbsp;inscripcionETSServicio:&amp;nbsp;InscripcionETSServicio&lt;/p&gt;&lt;hr size=&quot;1&quot;&gt;&lt;p style=&quot;margin:0 0 0 4px;line-height:1.6;&quot;&gt;+ InscripcionesControladorSaes(InscripcionETSServicio):&lt;/p&gt;&lt;p style=&quot;margin:0 0 0 4px;line-height:1.6;&quot;&gt;+ obtenerInscripciones(String): ResponseEntity&amp;lt;List&amp;lt;?&amp;gt;&amp;gt;&lt;br&gt;+ obtenerMaterias(String): ResponseEntity&amp;lt;List&amp;lt;ListaInscripcionETSProjectionSaes&amp;gt;&amp;gt;&lt;br&gt;+ nuevaInscripcion(NuevaPeticionInscripcionSaes): ResponseEntity&amp;lt;Object&amp;gt;&lt;/p&gt;" style="verticalAlign=top;align=left;overflow=fill;fontSize=14;fontFamily=Helvetica;html=1;rounded=0;shadow=0;comic=0;labelBackgroundColor=none;strokeWidth=1;" parent="1" vertex="1">
          <mxGeometry x="7" y="-542" width="548" height="168" as="geometry" />
        </mxCell>
        <mxCell id="node11" value="&lt;p style=&quot;margin:0px;margin-top:4px;text-align:center;&quot;&gt;&lt;b&gt;PeriodoETSControladorSaes&lt;/b&gt;&lt;/p&gt;&lt;hr size=&quot;1&quot;&gt;&lt;p style=&quot;margin:0 0 0 4px;line-height:1.6;&quot;&gt;-&amp;nbsp;periodoETSServicio: PeriodoETSServicio&lt;/p&gt;&lt;hr size=&quot;1&quot;&gt;&lt;p style=&quot;margin:0 0 0 4px;line-height:1.6;&quot;&gt;+ PeriodoETSControladorSaes(PeriodoETSServicio):&lt;/p&gt;&lt;p style=&quot;margin:0 0 0 4px;line-height:1.6;&quot;&gt;+ obtenerPeriodos(): ResponseEntity&amp;lt;List&amp;lt;periodoETS&amp;gt;&amp;gt;&lt;br&gt;+ registrarPeriodo(periodoETS): ResponseEntity&amp;lt;Object&amp;gt;&lt;br&gt;+ obtenerPeriodosParaETS(): ResponseEntity&amp;lt;List&amp;lt;PeriodosETSProjectionSaes&amp;gt;&amp;gt;&lt;/p&gt;" style="verticalAlign=top;align=left;overflow=fill;fontSize=14;fontFamily=Helvetica;html=1;rounded=0;shadow=0;comic=0;labelBackgroundColor=none;strokeWidth=1;" parent="1" vertex="1">
          <mxGeometry x="7" y="-350" width="546" height="160" as="geometry" />
        </mxCell>
        <mxCell id="node24" value="&lt;p style=&quot;margin:0px;margin-top:4px;text-align:center;&quot;&gt;&lt;b&gt;UnidadAprendizajeControladorSaes&lt;/b&gt;&lt;/p&gt;&lt;hr size=&quot;1&quot;&gt;&lt;p style=&quot;margin:0 0 0 4px;line-height:1.6;&quot;&gt;-unidadAprendizajeServicio: UnidadAprendizajeServicio&lt;/p&gt;&lt;hr size=&quot;1&quot;&gt;&lt;p style=&quot;margin:0 0 0 4px;line-height:1.6;&quot;&gt;+ UnidadAprendizajeControladorSaes(UnidadAprendizajeServicio):&lt;/p&gt;&lt;p style=&quot;margin:0 0 0 4px;line-height:1.6;&quot;&gt;+ obtenerUAprenParaETS(): ResponseEntity&amp;lt;List&amp;lt;UnidadAprendizajeProjectionSaes&amp;gt;&amp;gt;&lt;/p&gt;" style="verticalAlign=top;align=left;overflow=fill;fontSize=14;fontFamily=Helvetica;html=1;rounded=0;shadow=0;comic=0;labelBackgroundColor=none;strokeWidth=1;" parent="1" vertex="1">
          <mxGeometry x="7" y="-160" width="558" height="120" as="geometry" />
        </mxCell>
      </root>
    </mxGraphModel>
  </diagram>
  <diagram id="I6ncXyo9JlE23uQ-4ogg" name="Controladores2">
    <mxGraphModel dx="1344" dy="2394" grid="1" gridSize="10" guides="1" tooltips="1" connect="1" arrows="1" fold="1" page="1" pageScale="1" pageWidth="850" pageHeight="1100" math="0" shadow="0">
      <root>
        <mxCell id="0" />
        <mxCell id="1" parent="0" />
        <mxCell id="tGgMIs1qbxYygth5eyXM-1" value="&lt;p style=&quot;margin:0px;margin-top:4px;text-align:center;&quot;&gt;&lt;b&gt;AlumnoControlador&lt;/b&gt;&lt;/p&gt;&lt;hr size=&quot;1&quot;&gt;&lt;p style=&quot;margin:0 0 0 4px;line-height:1.6;&quot;&gt;- alumnoServicio: AlumnoServicio&lt;/p&gt;&lt;p style=&quot;margin:0 0 0 4px;line-height:1.6;&quot;&gt;-&amp;nbsp;inscripcionETSServicio: InscripcionETSServicio&lt;/p&gt;&lt;hr size=&quot;1&quot;&gt;&lt;p style=&quot;margin:0 0 0 4px;line-height:1.6;&quot;&gt;+ AlumnoControlador(AlumnoServicio, InscripcionETSServicio):&lt;/p&gt;&lt;p style=&quot;margin:0 0 0 4px;line-height:1.6;&quot;&gt;+ obtenerReporte(Integer, String): ResponseEntity&amp;lt;Map&amp;lt;String, Object&amp;gt;&amp;gt;&lt;br&gt;+ compararDatos(String, DatosWebDTO): ComparacionDTO&lt;br&gt;+ obtenerEstudiante(String): EstudianteEspecificoDTO&lt;br&gt;+ encontrarAlumnosInscritosETS(): List&amp;lt;AlumnoDTO&amp;gt;&lt;br&gt;+ inscripLista(String): ResponseEntity&amp;lt;List&amp;lt;ListaAlumnosDTO&amp;gt;&amp;gt;&lt;br&gt;+ encontrarCredencialPorBoleta(String): List&amp;lt;CredencialDTO&amp;gt;&lt;br&gt;+ obtenerImagenReporteUrl(Integer, String): ResponseEntity&amp;lt;Map&amp;lt;String, String&amp;gt;&amp;gt;&lt;br&gt;+ obtenerFotoAlumno(String): ResponseEntity&amp;lt;Map&amp;lt;String, String&amp;gt;&amp;gt;&lt;br&gt;+ encontrarDetalleAlumnoporboleta(String): List&amp;lt;DetalleAlumnosDTO&amp;gt;&lt;/p&gt;" style="verticalAlign=top;align=left;overflow=fill;fontSize=14;fontFamily=Helvetica;html=1;rounded=0;shadow=0;comic=0;labelBackgroundColor=none;strokeWidth=1;" vertex="1" parent="1">
          <mxGeometry x="860" y="-640" width="530" height="320" as="geometry" />
        </mxCell>
        <mxCell id="tGgMIs1qbxYygth5eyXM-2" value="&lt;p style=&quot;margin:0px;margin-top:4px;text-align:center;&quot;&gt;&lt;b&gt;AplicaControlador&lt;/b&gt;&lt;/p&gt;&lt;hr size=&quot;1&quot;&gt;&lt;p style=&quot;margin:0 0 0 4px;line-height:1.6;&quot;&gt;- docenteServicio: DocenteServicio&lt;/p&gt;&lt;hr size=&quot;1&quot;&gt;&lt;p style=&quot;margin:0 0 0 4px;line-height:1.6;&quot;&gt;+ AplicaControlador():&lt;/p&gt;&lt;p style=&quot;margin:0 0 0 4px;line-height:1.6;&quot;&gt;+ obtenerRfcDocente(int): ResponseEntity&amp;lt;Map&amp;lt;String, String&amp;gt;&amp;gt;&lt;/p&gt;" style="verticalAlign=top;align=left;overflow=fill;fontSize=14;fontFamily=Helvetica;html=1;rounded=0;shadow=0;comic=0;labelBackgroundColor=none;strokeWidth=1;" vertex="1" parent="1">
          <mxGeometry x="860" y="-300" width="410" height="120" as="geometry" />
        </mxCell>
        <mxCell id="tGgMIs1qbxYygth5eyXM-3" value="&lt;p style=&quot;margin:0px;margin-top:4px;text-align:center;&quot;&gt;&lt;b&gt;DetallesETSControlador&lt;/b&gt;&lt;/p&gt;&lt;hr size=&quot;1&quot;&gt;&lt;p style=&quot;margin:0 0 0 4px;line-height:1.6;&quot;&gt;- etsServicio: EtsServicio&lt;/p&gt;&lt;p style=&quot;margin:0 0 0 4px;line-height:1.6;&quot;&gt;- periodoETSServicio: PeriodoETSServicio&lt;/p&gt;&lt;hr size=&quot;1&quot;&gt;&lt;p style=&quot;margin:0 0 0 4px;line-height:1.6;&quot;&gt;+ DetallesETSControlador(ETSServicio, PeriodoETSServicio):&lt;/p&gt;&lt;p style=&quot;margin:0 0 0 4px;line-height:1.6;&quot;&gt;+ obtenerFechaETS(): TiempoParaETS&lt;br&gt;+ detallesETS(Integer): ResponseEntity&amp;lt;DetalleETSDTO&amp;gt;&lt;/p&gt;" style="verticalAlign=top;align=left;overflow=fill;fontSize=14;fontFamily=Helvetica;html=1;rounded=0;shadow=0;comic=0;labelBackgroundColor=none;strokeWidth=1;" vertex="1" parent="1">
          <mxGeometry x="860" y="-170" width="412" height="161" as="geometry" />
        </mxCell>
        <mxCell id="tGgMIs1qbxYygth5eyXM-4" value="&lt;p style=&quot;margin:0px;margin-top:4px;text-align:center;&quot;&gt;&lt;b&gt;PersonaControladorSaes&lt;/b&gt;&lt;/p&gt;&lt;hr size=&quot;1&quot;&gt;&lt;p style=&quot;margin:0 0 0 4px;line-height:1.6;&quot;&gt;-&amp;nbsp;personalSeguridadServicio: PersonalSeguridadServicio&lt;/p&gt;&lt;p style=&quot;margin:0 0 0 4px;line-height:1.6;&quot;&gt;-&amp;nbsp;docenteServicio: DocenteServicio&lt;/p&gt;&lt;p style=&quot;margin:0 0 0 4px;line-height:1.6;&quot;&gt;-&amp;nbsp;alumnoServicio: AlumnoServicio&lt;/p&gt;&lt;hr size=&quot;1&quot;&gt;&lt;p style=&quot;margin:0 0 0 4px;line-height:1.6;&quot;&gt;+ PersonaControladorSaes(PersonalSeguridadServicio, DocenteServicio, AlumnoServicio):&lt;/p&gt;&lt;p style=&quot;margin:0 0 0 4px;line-height:1.6;&quot;&gt;+ obtenerPS(): ResponseEntity&amp;lt;List&amp;lt;PersonalSeguridadDTOSaes&amp;gt;&amp;gt;&lt;br&gt;+ nuevoAlumno(NuevoAlumnoDTOSaes, MultipartFile, MultipartFile): ResponseEntity&amp;lt;Object&amp;gt;&lt;br&gt;+ volumenExiste(): String&lt;br&gt;+ obtenerDocenteParaETS(): ResponseEntity&amp;lt;List&amp;lt;DocentesDTOParaETS&amp;gt;&amp;gt;&lt;br&gt;+ registrarDocentes(NuevoDocenteDTOSaes): ResponseEntity&amp;lt;Object&amp;gt;&lt;br&gt;+ registrarPersonalSeguridad(NuevoPersonalSeguridadDTOSaes): ResponseEntity&amp;lt;Object&amp;gt;&lt;br&gt;+ obtenerDocentes(): ResponseEntity&amp;lt;List&amp;lt;DocentesDTOSaes&amp;gt;&amp;gt;&lt;/p&gt;" style="verticalAlign=top;align=left;overflow=fill;fontSize=14;fontFamily=Helvetica;html=1;rounded=0;shadow=0;comic=0;labelBackgroundColor=none;strokeWidth=1;" vertex="1" parent="1">
          <mxGeometry x="860" y="-1093" width="612" height="300" as="geometry" />
        </mxCell>
        <mxCell id="tGgMIs1qbxYygth5eyXM-5" value="&lt;p style=&quot;margin:0px;margin-top:4px;text-align:center;&quot;&gt;&lt;b&gt;SalonControladorSaes&lt;/b&gt;&lt;/p&gt;&lt;hr size=&quot;1&quot;&gt;&lt;p style=&quot;margin:0 0 0 4px;line-height:1.6;&quot;&gt;- etsServicio: EtsServicio&lt;/p&gt;&lt;hr size=&quot;1&quot;&gt;&lt;p style=&quot;margin:0 0 0 4px;line-height:1.6;&quot;&gt;+ SalonControladorSaes(ETSServicio):&lt;/p&gt;&lt;p style=&quot;margin:0 0 0 4px;line-height:1.6;&quot;&gt;+ obtenerSalonParaETS(): ResponseEntity&amp;lt;List&amp;lt;?&amp;gt;&amp;gt;&lt;/p&gt;" style="verticalAlign=top;align=left;overflow=fill;fontSize=14;fontFamily=Helvetica;html=1;rounded=0;shadow=0;comic=0;labelBackgroundColor=none;strokeWidth=1;" vertex="1" parent="1">
          <mxGeometry x="860" y="-780" width="360" height="120" as="geometry" />
        </mxCell>
      </root>
    </mxGraphModel>
  </diagram>
  <diagram id="i3gmmpgBAiJ9g8yI7Rln" name="Controladores3">
    <mxGraphModel dx="2593" dy="1529" grid="1" gridSize="10" guides="1" tooltips="1" connect="1" arrows="1" fold="1" page="1" pageScale="1" pageWidth="850" pageHeight="1100" math="0" shadow="0">
      <root>
        <mxCell id="0" />
        <mxCell id="1" parent="0" />
        <mxCell id="drjYVjVM793R3-UOm5A9-1" value="&lt;p style=&quot;margin:0px;margin-top:4px;text-align:center;&quot;&gt;&lt;b&gt;ImagenRedControlador&lt;/b&gt;&lt;/p&gt;&lt;hr size=&quot;1&quot;&gt;&lt;p style=&quot;margin:0 0 0 4px;line-height:1.6;&quot;&gt;&lt;u&gt;- registro: Logger&lt;/u&gt;&lt;/p&gt;&lt;p style=&quot;margin:0 0 0 4px;line-height:1.6;&quot;&gt;-&amp;nbsp;imagenRedServicio: ImagenRedServicio&lt;/p&gt;&lt;hr size=&quot;1&quot;&gt;&lt;p style=&quot;margin:0 0 0 4px;line-height:1.6;&quot;&gt;+ ImagenRedControlador():&lt;/p&gt;&lt;p style=&quot;margin:0 0 0 4px;line-height:1.6;&quot;&gt;+ subirImagen(Optional&amp;lt;String&amp;gt;, String, String, String, Optional&amp;lt;String&amp;gt;,&amp;nbsp;&lt;/p&gt;&lt;p style=&quot;margin:0 0 0 4px;line-height:1.6;&quot;&gt;String, MultipartFile): ResponseEntity&amp;lt;CreacionReporteDTO&amp;gt;&lt;/p&gt;" style="verticalAlign=top;align=left;overflow=fill;fontSize=14;fontFamily=Helvetica;html=1;rounded=0;shadow=0;comic=0;labelBackgroundColor=none;strokeWidth=1;" vertex="1" parent="1">
          <mxGeometry x="7" y="10" width="460" height="160" as="geometry" />
        </mxCell>
        <mxCell id="drjYVjVM793R3-UOm5A9-2" value="&lt;p style=&quot;margin:0px;margin-top:4px;text-align:center;&quot;&gt;&lt;b&gt;IngresoInstalacionControlador&lt;/b&gt;&lt;/p&gt;&lt;hr size=&quot;1&quot;&gt;&lt;p style=&quot;margin:0 0 0 4px;line-height:1.6;&quot;&gt;- ingresoInstalacionServicio: IngresoInstalacionServicio&lt;/p&gt;&lt;hr size=&quot;1&quot;&gt;&lt;p style=&quot;margin:0 0 0 4px;line-height:1.6;&quot;&gt;+ IngresoInstalacionControlador():&lt;/p&gt;&lt;p style=&quot;margin:0 0 0 4px;line-height:1.6;&quot;&gt;+ verificarInscripcion(String, Integer): ResponseEntity&amp;lt;?&amp;gt;&lt;br&gt;+ registrarAsistencia(String, String, String, Integer): ResponseEntity&amp;lt;?&amp;gt;&lt;/p&gt;" style="verticalAlign=top;align=left;overflow=fill;fontSize=14;fontFamily=Helvetica;html=1;rounded=0;shadow=0;comic=0;labelBackgroundColor=none;strokeWidth=1;" vertex="1" parent="1">
          <mxGeometry x="7" y="180" width="453" height="140" as="geometry" />
        </mxCell>
        <mxCell id="drjYVjVM793R3-UOm5A9-3" value="&lt;p style=&quot;margin:0px;margin-top:4px;text-align:center;&quot;&gt;&lt;b&gt;IngresoSalonControlador&lt;/b&gt;&lt;/p&gt;&lt;hr size=&quot;1&quot;&gt;&lt;p style=&quot;margin:0 0 0 4px;line-height:1.6;&quot;&gt;- ingresoSalonServicio: IngresoSalonServicio&lt;/p&gt;&lt;hr size=&quot;1&quot;&gt;&lt;p style=&quot;margin:0 0 0 4px;line-height:1.6;&quot;&gt;+ IngresoSalonControlador(IngresoSalonServicio):&lt;/p&gt;&lt;p style=&quot;margin:0 0 0 4px;line-height:1.6;&quot;&gt;+ verificarIngreso(Integer, String): ResponseEntity&amp;lt;String&amp;gt;&lt;br&gt;+ eliminarReporte(Integer, String): ResponseEntity&amp;lt;String&amp;gt;&lt;/p&gt;" style="verticalAlign=top;align=left;overflow=fill;fontSize=14;fontFamily=Helvetica;html=1;rounded=0;shadow=0;comic=0;labelBackgroundColor=none;strokeWidth=1;" vertex="1" parent="1">
          <mxGeometry x="7" y="329" width="373" height="141" as="geometry" />
        </mxCell>
        <mxCell id="drjYVjVM793R3-UOm5A9-4" value="&lt;p style=&quot;margin:0px;margin-top:4px;text-align:center;&quot;&gt;&lt;b&gt;InicioSesionControlador&lt;/b&gt;&lt;/p&gt;&lt;hr size=&quot;1&quot;&gt;&lt;p style=&quot;margin:0 0 0 4px;line-height:1.6;&quot;&gt;- inicioSesionServicio: InicioSesionServicio&lt;/p&gt;&lt;hr size=&quot;1&quot;&gt;&lt;p style=&quot;margin:0 0 0 4px;line-height:1.6;&quot;&gt;+ InicioSesionControlador(InicioSesionServicio):&lt;/p&gt;&lt;p style=&quot;margin:0 0 0 4px;line-height:1.6;&quot;&gt;+ inicioSesion(InicioSesionPeticionDTO): ResponseEntity&amp;lt;InicioSesionRespuestaDTO&amp;gt;&lt;/p&gt;" style="verticalAlign=top;align=left;overflow=fill;fontSize=14;fontFamily=Helvetica;html=1;rounded=0;shadow=0;comic=0;labelBackgroundColor=none;strokeWidth=1;" vertex="1" parent="1">
          <mxGeometry x="7" y="480" width="553" height="120" as="geometry" />
        </mxCell>
        <mxCell id="drjYVjVM793R3-UOm5A9-5" value="&lt;p style=&quot;margin:0px;margin-top:4px;text-align:center;&quot;&gt;&lt;b&gt;InscripcionesControlador&lt;/b&gt;&lt;/p&gt;&lt;hr size=&quot;1&quot;&gt;&lt;p style=&quot;margin:0 0 0 4px;line-height:1.6;&quot;&gt;- listaETSServicio: ListaETSServicio&lt;/p&gt;&lt;p style=&quot;margin:0 0 0 4px;line-height:1.6;&quot;&gt;-&amp;nbsp;usuarioRepositorio: UsuarioRepositorio&lt;/p&gt;&lt;hr size=&quot;1&quot;&gt;&lt;p style=&quot;margin:0 0 0 4px;line-height:1.6;&quot;&gt;+ InscripcionesControlador(ListaETSServicio, UsuarioRepositorio):&lt;/p&gt;&lt;p style=&quot;margin:0 0 0 4px;line-height:1.6;&quot;&gt;+ confirmarInscripcion(String): Map&amp;lt;String, Boolean&amp;gt;&lt;br&gt;+ confirmarUsuarioValido(String): Map&amp;lt;String, Object&amp;gt;&lt;/p&gt;" style="verticalAlign=top;align=left;overflow=fill;fontSize=14;fontFamily=Helvetica;html=1;rounded=0;shadow=0;comic=0;labelBackgroundColor=none;strokeWidth=1;" vertex="1" parent="1">
          <mxGeometry x="7" y="610" width="433" height="170" as="geometry" />
        </mxCell>
        <mxCell id="drjYVjVM793R3-UOm5A9-6" value="&lt;p style=&quot;margin:0px;margin-top:4px;text-align:center;&quot;&gt;&lt;b&gt;ListaInscripcionesControlador&lt;/b&gt;&lt;/p&gt;&lt;hr size=&quot;1&quot;&gt;&lt;p style=&quot;margin:0 0 0 4px;line-height:1.6;&quot;&gt;- listaETSServicio: ListaETSServicio&lt;/p&gt;&lt;hr size=&quot;1&quot;&gt;&lt;p style=&quot;margin:0 0 0 4px;line-height:1.6;&quot;&gt;+ ListaInscripcionesControlador(ListaETSServicio):&lt;/p&gt;&lt;p style=&quot;margin:0 0 0 4px;line-height:1.6;&quot;&gt;+ listaInscritos(String): ResponseEntity&amp;lt;List&amp;lt;ListaETSRespuestaDTO&amp;gt;&amp;gt;&lt;br&gt;+ LitaAplicacion(String): ResponseEntity&amp;lt;List&amp;lt;ListaETSRespuestaDTO&amp;gt;&amp;gt;&lt;/p&gt;" style="verticalAlign=top;align=left;overflow=fill;fontSize=14;fontFamily=Helvetica;html=1;rounded=0;shadow=0;comic=0;labelBackgroundColor=none;strokeWidth=1;" vertex="1" parent="1">
          <mxGeometry x="7" y="800" width="473" height="140" as="geometry" />
        </mxCell>
        <mxCell id="drjYVjVM793R3-UOm5A9-7" value="&lt;p style=&quot;margin:0px;margin-top:4px;text-align:center;&quot;&gt;&lt;b&gt;UnidadAcademicaControlador&lt;/b&gt;&lt;/p&gt;&lt;hr size=&quot;1&quot;&gt;&lt;p style=&quot;margin:0 0 0 4px;line-height:1.6;&quot;&gt;-&amp;nbsp;unidadAcademicaServicio: UnidadAcademicaServicio&lt;/p&gt;&lt;hr size=&quot;1&quot;&gt;&lt;p style=&quot;margin:0 0 0 4px;line-height:1.6;&quot;&gt;+ UnidadAcademicaControlador(UnidadAcademicaServicio):&lt;/p&gt;&lt;p style=&quot;margin:0 0 0 4px;line-height:1.6;&quot;&gt;+ obtenerUA(): List&amp;lt;UnidadAcademica&amp;gt;&lt;/p&gt;" style="verticalAlign=top;align=left;overflow=fill;fontSize=14;fontFamily=Helvetica;html=1;rounded=0;shadow=0;comic=0;labelBackgroundColor=none;strokeWidth=1;" vertex="1" parent="1">
          <mxGeometry x="7" y="960" width="407" height="120" as="geometry" />
        </mxCell>
        <mxCell id="drjYVjVM793R3-UOm5A9-8" value="«create»" style="edgeLabel;resizable=0;html=1;align=left;verticalAlign=top;strokeColor=default;" vertex="1" connectable="0" parent="1">
          <mxGeometry x="318" y="588" as="geometry" />
        </mxCell>
        <mxCell id="drjYVjVM793R3-UOm5A9-9" value="1" style="edgeLabel;resizable=0;html=1;align=left;verticalAlign=top;strokeColor=default;" vertex="1" connectable="0" parent="1">
          <mxGeometry x="134" y="614" as="geometry" />
        </mxCell>
        <mxCell id="drjYVjVM793R3-UOm5A9-10" value="1" style="edgeLabel;resizable=0;html=1;align=left;verticalAlign=top;strokeColor=default;" vertex="1" connectable="0" parent="1">
          <mxGeometry x="141" y="241" as="geometry" />
        </mxCell>
        <mxCell id="drjYVjVM793R3-UOm5A9-11" value="scraping" style="edgeLabel;resizable=0;html=1;align=left;verticalAlign=top;strokeColor=default;" vertex="1" connectable="0" parent="1">
          <mxGeometry x="152" y="241" as="geometry" />
        </mxCell>
      </root>
    </mxGraphModel>
  </diagram>
  <diagram id="S8aGeQd8tIbn0S2r1Akf" name="Controladores4">
    <mxGraphModel dx="1527" dy="1402" grid="1" gridSize="10" guides="1" tooltips="1" connect="1" arrows="1" fold="1" page="1" pageScale="1" pageWidth="850" pageHeight="1100" math="0" shadow="0">
      <root>
        <mxCell id="0" />
        <mxCell id="1" parent="0" />
        <mxCell id="BB15m3IRcNbZ9_T4G6r7-1" value="&lt;p style=&quot;margin:0px;margin-top:4px;text-align:center;&quot;&gt;&lt;b&gt;MensajeControlador&lt;/b&gt;&lt;/p&gt;&lt;hr size=&quot;1&quot;&gt;&lt;p style=&quot;margin:0 0 0 4px;line-height:1.6;&quot;&gt;-&amp;nbsp;mensajeServicio: MensajeServicio&lt;/p&gt;&lt;p style=&quot;margin:0 0 0 4px;line-height:1.6;&quot;&gt;-&amp;nbsp;usuarioRepositorio: UsuarioRepositorio&lt;/p&gt;&lt;hr size=&quot;1&quot;&gt;&lt;p style=&quot;margin:0 0 0 4px;line-height:1.6;&quot;&gt;+ MensajeControlador(MensajeServicio, UsuarioRepositorio):&lt;/p&gt;&lt;p style=&quot;margin:0 0 0 4px;line-height:1.6;&quot;&gt;+ enviarMensaje(MensajeRecibidoDTO): ResponseEntity&amp;lt;Map&amp;lt;String, Object&amp;gt;&amp;gt;&lt;br&gt;+ obtenerUsuariosParaChatear(String): List&amp;lt;ListadoUsuariosDTO&amp;gt;&lt;br&gt;+ obtenerChat(String): ResponseEntity&amp;lt;Object&amp;gt;&lt;br&gt;+ obtenerHistorial(String, String): ResponseEntity&amp;lt;List&amp;lt;MensajeDTO&amp;gt;&amp;gt;&lt;/p&gt;" style="verticalAlign=top;align=left;overflow=fill;fontSize=14;fontFamily=Helvetica;html=1;rounded=0;shadow=0;comic=0;labelBackgroundColor=none;strokeWidth=1;" vertex="1" parent="1">
          <mxGeometry x="860" y="10" width="510" height="210" as="geometry" />
        </mxCell>
        <mxCell id="BB15m3IRcNbZ9_T4G6r7-2" value="&lt;p style=&quot;margin:0px;margin-top:4px;text-align:center;&quot;&gt;&lt;b&gt;PersonaControlador&lt;/b&gt;&lt;/p&gt;&lt;hr size=&quot;1&quot;&gt;&lt;p style=&quot;margin:0 0 0 4px;line-height:1.6;&quot;&gt;-&amp;nbsp;personaServicio: PersonaServicio&lt;/p&gt;&lt;hr size=&quot;1&quot;&gt;&lt;p style=&quot;margin:0 0 0 4px;line-height:1.6;&quot;&gt;&lt;span style=&quot;background-color: transparent; color: light-dark(rgb(0, 0, 0), rgb(255, 255, 255));&quot;&gt;+ PersonaControlador(PersonaServicio):&lt;/span&gt;&lt;/p&gt;&lt;p style=&quot;margin:0 0 0 4px;line-height:1.6;&quot;&gt;+ obtenerNombre(String): ResponseEntity&amp;lt;List&amp;lt;DatosPersonaDTO&amp;gt;&amp;gt;&lt;br&gt;+ registrarPersona(Persona): ResponseEntity&amp;lt;Object&amp;gt;&lt;br&gt;+ obtenerPersona(): List&amp;lt;PersonaDTO&amp;gt;&lt;br&gt;+ eliminarPersona(String): ResponseEntity&amp;lt;Object&amp;gt;&lt;/p&gt;" style="verticalAlign=top;align=left;overflow=fill;fontSize=14;fontFamily=Helvetica;html=1;rounded=0;shadow=0;comic=0;labelBackgroundColor=none;strokeWidth=1;" vertex="1" parent="1">
          <mxGeometry x="860" y="240" width="417" height="190" as="geometry" />
        </mxCell>
        <mxCell id="BB15m3IRcNbZ9_T4G6r7-3" value="&lt;p style=&quot;margin:0px;margin-top:4px;text-align:center;&quot;&gt;&lt;b&gt;PersonalAcademicoControlador&lt;/b&gt;&lt;/p&gt;&lt;hr size=&quot;1&quot;&gt;&lt;p style=&quot;margin:0 0 0 4px;line-height:1.6;&quot;&gt;-&amp;nbsp;docenteServicio: DocenteServicio&lt;/p&gt;&lt;hr size=&quot;1&quot;&gt;&lt;p style=&quot;margin:0 0 0 4px;line-height:1.6;&quot;&gt;+ PersonalAcademicoControlador(DocenteServicio):&lt;/p&gt;&lt;p style=&quot;margin:0 0 0 4px;line-height:1.6;&quot;&gt;+ obtenerTodosDocentes(): ResponseEntity&amp;lt;List&amp;lt;DocenteDTO&amp;gt;&amp;gt;&lt;/p&gt;" style="verticalAlign=top;align=left;overflow=fill;fontSize=14;fontFamily=Helvetica;html=1;rounded=0;shadow=0;comic=0;labelBackgroundColor=none;strokeWidth=1;" vertex="1" parent="1">
          <mxGeometry x="860" y="450" width="447" height="120" as="geometry" />
        </mxCell>
        <mxCell id="BB15m3IRcNbZ9_T4G6r7-4" value="&lt;p style=&quot;margin:0px;margin-top:4px;text-align:center;&quot;&gt;&lt;b&gt;SustitutoControlador&lt;/b&gt;&lt;/p&gt;&lt;hr size=&quot;1&quot;&gt;&lt;p style=&quot;margin:0 0 0 4px;line-height:1.6;&quot;&gt;-&amp;nbsp;sustitutoServicio: SustitutoServicio&lt;/p&gt;&lt;hr size=&quot;1&quot;&gt;&lt;p style=&quot;margin:0 0 0 4px;line-height:1.6;&quot;&gt;+ SustitutoControlador(SustitutoServicio):&lt;/p&gt;&lt;p style=&quot;margin:0 0 0 4px;line-height:1.6;&quot;&gt;+ crearSolicitudReemplazo(SolicitudReemplazoDTO): ResponseEntity&amp;lt;SolicitudReemplazoDTO&amp;gt;&lt;br&gt;+ obtenerTodasSolicitudes(): ResponseEntity&amp;lt;List&amp;lt;SolicitudReemplazoDTO&amp;gt;&amp;gt;&lt;br&gt;+ obtenerSolicitudesPendientes(): ResponseEntity&amp;lt;List&amp;lt;SolicitudReemplazoDTO&amp;gt;&amp;gt;&lt;br&gt;+ aprobarReemplazo(Integer, String, String): ResponseEntity&amp;lt;Map&amp;lt;String, Object&amp;gt;&amp;gt;&lt;br&gt;+ rechazarReemplazo(Integer, String, String): ResponseEntity&amp;lt;Map&amp;lt;String, Object&amp;gt;&amp;gt;&lt;br&gt;+ handleRuntimeException(RuntimeException): ResponseEntity&amp;lt;Map&amp;lt;String, Object&amp;gt;&amp;gt;&lt;br&gt;+ verificarSolicitudPendiente(Integer, String): ResponseEntity&amp;lt;VerificacionSolicitudResponseDTO&amp;gt;&lt;/p&gt;" style="verticalAlign=top;align=left;overflow=fill;fontSize=14;fontFamily=Helvetica;html=1;rounded=0;shadow=0;comic=0;labelBackgroundColor=none;strokeWidth=1;" vertex="1" parent="1">
          <mxGeometry x="860" y="579" width="650" height="261" as="geometry" />
        </mxCell>
        <mxCell id="BB15m3IRcNbZ9_T4G6r7-5" value="&lt;p style=&quot;margin:0px;margin-top:4px;text-align:center;&quot;&gt;&lt;b&gt;TokenNotificationControlador&lt;/b&gt;&lt;/p&gt;&lt;hr size=&quot;1&quot;&gt;&lt;p style=&quot;margin:0 0 0 4px;line-height:1.6;&quot;&gt;-&amp;nbsp;tokenNotificationServicio: TokenNotificationServicio&lt;/p&gt;&lt;hr size=&quot;1&quot;&gt;&lt;p style=&quot;margin:0 0 0 4px;line-height:1.6;&quot;&gt;+ TokenNotificationControlador(TokenNotificationServicio):&lt;/p&gt;&lt;p style=&quot;margin:0 0 0 4px;line-height:1.6;&quot;&gt;+ registrarToken(String, String): TokenRespuestaDTO&lt;/p&gt;" style="verticalAlign=top;align=left;overflow=fill;fontSize=14;fontFamily=Helvetica;html=1;rounded=0;shadow=0;comic=0;labelBackgroundColor=none;strokeWidth=1;" vertex="1" parent="1">
          <mxGeometry x="860" y="860" width="407" height="120" as="geometry" />
        </mxCell>
      </root>
    </mxGraphModel>
  </diagram>
  <diagram id="X34ZEeX2XTx1qeTy4Rqg" name="Controladores5">
    <mxGraphModel dx="494" dy="1294" grid="1" gridSize="10" guides="1" tooltips="1" connect="1" arrows="1" fold="1" page="1" pageScale="1" pageWidth="850" pageHeight="1100" math="0" shadow="0">
      <root>
        <mxCell id="0" />
        <mxCell id="1" parent="0" />
        <mxCell id="afpzxQhKgiI_ER8RbWzP-1" value="&lt;p style=&quot;margin:0px;margin-top:4px;text-align:center;&quot;&gt;&lt;b&gt;SSLConfig&lt;/b&gt;&lt;/p&gt;&lt;hr size=&quot;1&quot;&gt;&lt;p style=&quot;margin:0 0 0 4px;line-height:1.6;&quot;&gt;&lt;/p&gt;&lt;p style=&quot;margin:0 0 0 4px;line-height:1.6;&quot;&gt;+ SSLConfig():&lt;/p&gt;&lt;p style=&quot;margin:0 0 0 4px;line-height:1.6;&quot;&gt;+ configurarParaFirebase(): void&lt;br&gt;+ configurarParaIPN(): void&lt;br&gt;+ configureSSL(): void&lt;/p&gt;" style="verticalAlign=top;align=left;overflow=fill;fontSize=14;fontFamily=Helvetica;html=1;rounded=0;shadow=0;comic=0;labelBackgroundColor=none;strokeWidth=1;" vertex="1" parent="1">
          <mxGeometry x="1780" y="60" width="233" height="147" as="geometry" />
        </mxCell>
        <mxCell id="afpzxQhKgiI_ER8RbWzP-2" value="&lt;p style=&quot;margin:0px;margin-top:4px;text-align:center;&quot;&gt;&lt;b&gt;Scraping&lt;/b&gt;&lt;/p&gt;&lt;hr size=&quot;1&quot;&gt;&lt;p style=&quot;margin:0 0 0 4px;line-height:1.6;&quot;&gt;&lt;/p&gt;&lt;p style=&quot;margin:0 0 0 4px;line-height:1.6;&quot;&gt;+ Scraping():&lt;/p&gt;&lt;p style=&quot;margin:0 0 0 4px;line-height:1.6;&quot;&gt;+ procesarPdfAImage(String, String): String&lt;br&gt;- procesarPdfAImageConRutas(String, String, String, String): String&lt;br&gt;- cacheExpirada(File): boolean&lt;/p&gt;" style="verticalAlign=top;align=left;overflow=fill;fontSize=14;fontFamily=Helvetica;html=1;rounded=0;shadow=0;comic=0;labelBackgroundColor=none;strokeWidth=1;" vertex="1" parent="1">
          <mxGeometry x="2090" y="228" width="453" height="147" as="geometry" />
        </mxCell>
        <mxCell id="afpzxQhKgiI_ER8RbWzP-3" value="&lt;p style=&quot;margin:0px;margin-top:4px;text-align:center;&quot;&gt;&lt;b&gt;ScrapingControlador&lt;/b&gt;&lt;/p&gt;&lt;hr size=&quot;1&quot;&gt;&lt;p style=&quot;margin: 0px 0px 0px 4px; line-height: 1.6;&quot;&gt;- alumnoService: AlumnoService&lt;/p&gt;&lt;p style=&quot;margin: 0px 0px 0px 4px; line-height: 1.6;&quot;&gt;- scraping: Scraping&lt;/p&gt;&lt;hr size=&quot;1&quot;&gt;&lt;p style=&quot;margin: 0px 0px 0px 4px; line-height: 1.6;&quot;&gt;+ obtenerImagenCalendario: ResponseEntity&amp;lt;FileSystemResource&amp;gt;&lt;/p&gt;&lt;p style=&quot;margin: 0px 0px 0px 4px; line-height: 1.6;&quot;&gt;+ capturarCredencial(String): ResponseEntity&amp;lt;CredencialRespuestaDTO&amp;gt;&lt;br&gt;- convertirImagenABase64(String): String&lt;/p&gt;&lt;p style=&quot;margin: 0px 0px 0px 4px; line-height: 1.6;&quot;&gt;&lt;br&gt;&lt;/p&gt;" style="verticalAlign=top;align=left;overflow=fill;fontSize=14;fontFamily=Helvetica;html=1;rounded=0;shadow=0;comic=0;labelBackgroundColor=none;strokeWidth=1;" vertex="1" parent="1">
          <mxGeometry x="1910" y="900" width="492" height="170" as="geometry" />
        </mxCell>
        <mxCell id="afpzxQhKgiI_ER8RbWzP-4" value="&lt;p style=&quot;margin:0px;margin-top:4px;text-align:center;&quot;&gt;&lt;b&gt;ScrapingCredencial&lt;/b&gt;&lt;/p&gt;&lt;hr size=&quot;1&quot;&gt;&lt;p style=&quot;margin:0 0 0 4px;line-height:1.6;&quot;&gt;&lt;/p&gt;&lt;p style=&quot;margin:0 0 0 4px;line-height:1.6;&quot;&gt;+ ScrapingCredencial():&lt;/p&gt;&lt;p style=&quot;margin:0 0 0 4px;line-height:1.6;&quot;&gt;- obtenerTexto(Document, String, String): String&lt;br&gt;- generarPDFDeHTML(String, Path): void&lt;br&gt;- buscarContenidoHtml(String): String&lt;br&gt;- prepararDirectorio(String): Path&lt;br&gt;- convertirPDFaImagen(Path, Path): void&lt;br&gt;- extraerDatosAlumno(Document): Map&amp;lt;String, String&amp;gt;&lt;br&gt;+ capturarCredencial(String): Map&amp;lt;String, String&amp;gt;&lt;br&gt;- obtenerBoletaAlumno(String): String&lt;br&gt;- convertirAXhtml(String): String&lt;/p&gt;" style="verticalAlign=top;align=left;overflow=fill;fontSize=14;fontFamily=Helvetica;html=1;rounded=0;shadow=0;comic=0;labelBackgroundColor=none;strokeWidth=1;" vertex="1" parent="1">
          <mxGeometry x="1730" y="430" width="381" height="280" as="geometry" />
        </mxCell>
        <mxCell id="afpzxQhKgiI_ER8RbWzP-5" value="" style="html=1;rounded=1;edgeStyle=orthogonalEdgeStyle;dashed=1;startArrow=none;endArrow=openThin;endSize=12;strokeColor=#000000;exitX=0.500;exitY=0.000;exitDx=0;exitDy=0;entryX=1;entryY=0.5;entryDx=0;entryDy=0;" edge="1" parent="1" source="afpzxQhKgiI_ER8RbWzP-2" target="afpzxQhKgiI_ER8RbWzP-1">
          <mxGeometry width="50" height="50" relative="1" as="geometry">
            <Array as="points">
              <mxPoint x="2317" y="134" />
            </Array>
          </mxGeometry>
        </mxCell>
        <mxCell id="afpzxQhKgiI_ER8RbWzP-6" value="" style="html=1;rounded=1;edgeStyle=orthogonalEdgeStyle;dashed=1;startArrow=none;endArrow=openThin;endSize=12;strokeColor=#000000;exitX=0.833;exitY=0.000;exitDx=0;exitDy=0;entryX=0.750;entryY=1.000;entryDx=0;entryDy=0;" edge="1" parent="1" source="afpzxQhKgiI_ER8RbWzP-3" target="afpzxQhKgiI_ER8RbWzP-2">
          <mxGeometry width="50" height="50" relative="1" as="geometry">
            <Array as="points">
              <mxPoint x="2320" y="630" />
              <mxPoint x="2430" y="630" />
            </Array>
          </mxGeometry>
        </mxCell>
        <mxCell id="afpzxQhKgiI_ER8RbWzP-7" value="" style="html=1;rounded=1;edgeStyle=orthogonalEdgeStyle;dashed=0;startArrow=diamondThin;endArrow=none;endSize=12;strokeColor=#000000;exitX=0.500;exitY=0.000;exitDx=0;exitDy=0;entryX=0.250;entryY=1.000;entryDx=0;entryDy=0;startFill=1;startSize=15;" edge="1" parent="1" source="afpzxQhKgiI_ER8RbWzP-3" target="afpzxQhKgiI_ER8RbWzP-2">
          <mxGeometry width="50" height="50" relative="1" as="geometry">
            <Array as="points">
              <mxPoint x="2156" y="568" />
              <mxPoint x="2203" y="568" />
            </Array>
          </mxGeometry>
        </mxCell>
        <mxCell id="afpzxQhKgiI_ER8RbWzP-8" value="1" style="edgeLabel;html=1;align=center;verticalAlign=middle;resizable=0;points=[];" vertex="1" connectable="0" parent="afpzxQhKgiI_ER8RbWzP-7">
          <mxGeometry x="-0.8102" y="-2" relative="1" as="geometry">
            <mxPoint x="6" y="16" as="offset" />
          </mxGeometry>
        </mxCell>
        <mxCell id="afpzxQhKgiI_ER8RbWzP-9" value="1" style="edgeLabel;html=1;align=center;verticalAlign=middle;resizable=0;points=[];" vertex="1" connectable="0" parent="afpzxQhKgiI_ER8RbWzP-7">
          <mxGeometry x="0.9217" y="-1" relative="1" as="geometry">
            <mxPoint x="6" y="-4" as="offset" />
          </mxGeometry>
        </mxCell>
        <mxCell id="afpzxQhKgiI_ER8RbWzP-10" value="" style="html=1;rounded=1;edgeStyle=orthogonalEdgeStyle;dashed=1;startArrow=none;endArrow=openThin;endSize=12;strokeColor=#000000;exitX=0.167;exitY=0.000;exitDx=0;exitDy=0;entryX=0.500;entryY=1.000;entryDx=0;entryDy=0;" edge="1" parent="1" source="afpzxQhKgiI_ER8RbWzP-3" target="afpzxQhKgiI_ER8RbWzP-4">
          <mxGeometry width="50" height="50" relative="1" as="geometry">
            <Array as="points">
              <mxPoint x="1992" y="830" />
              <mxPoint x="1921" y="830" />
            </Array>
          </mxGeometry>
        </mxCell>
      </root>
    </mxGraphModel>
  </diagram>
</mxfile>
